Right_states
version=1
nRows=5
nColumns=140
inDegrees=yes

# SIMM Motion File Header:
name Right_states
datacolumns 140
datarows 5
otherdata 1
range 0.00000000 0.00436404
endheader
time	/jointset/sternoclavicular/sternoclavicular_r2/value	/jointset/sternoclavicular/sternoclavicular_r2/speed	/jointset/sternoclavicular/sternoclavicular_r3/value	/jointset/sternoclavicular/sternoclavicular_r3/speed	/jointset/unrotscap/unrotscap_r3/value	/jointset/unrotscap/unrotscap_r3/speed	/jointset/unrotscap/unrotscap_r2/value	/jointset/unrotscap/unrotscap_r2/speed	/jointset/acromioclavicular/acromioclavicular_r2/value	/jointset/acromioclavicular/acromioclavicular_r2/speed	/jointset/acromioclavicular/acromioclavicular_r3/value	/jointset/acromioclavicular/acromioclavicular_r3/speed	/jointset/acromioclavicular/acromioclavicular_r1/value	/jointset/acromioclavicular/acromioclavicular_r1/speed	/jointset/unrothum/unrothum_r1/value	/jointset/unrothum/unrothum_r1/speed	/jointset/unrothum/unrothum_r3/value	/jointset/unrothum/unrothum_r3/speed	/jointset/unrothum/unrothum_r2/value	/jointset/unrothum/unrothum_r2/speed	/jointset/shoulder0/elv_angle/value	/jointset/shoulder0/elv_angle/speed	/jointset/shoulder1/shoulder_elv/value	/jointset/shoulder1/shoulder_elv/speed	/jointset/shoulder1/shoulder1_r2/value	/jointset/shoulder1/shoulder1_r2/speed	/jointset/shoulder2/shoulder_rot/value	/jointset/shoulder2/shoulder_rot/speed	/jointset/elbow/elbow_flexion/value	/jointset/elbow/elbow_flexion/speed	/jointset/radioulnar/pro_sup/value	/jointset/radioulnar/pro_sup/speed	/jointset/radiocarpal/deviation/value	/jointset/radiocarpal/deviation/speed	/jointset/radiocarpal/flexion/value	/jointset/radiocarpal/flexion/speed	/jointset/wrist_hand/wrist_hand_r1/value	/jointset/wrist_hand/wrist_hand_r1/speed	/jointset/wrist_hand/wrist_hand_r3/value	/jointset/wrist_hand/wrist_hand_r3/speed	/forceset/DELT1/activation	/forceset/DELT1/fiber_length	/forceset/DELT2/activation	/forceset/DELT2/fiber_length	/forceset/DELT3/activation	/forceset/DELT3/fiber_length	/forceset/SUPSP/activation	/forceset/SUPSP/fiber_length	/forceset/INFSP/activation	/forceset/INFSP/fiber_length	/forceset/SUBSC/activation	/forceset/SUBSC/fiber_length	/forceset/TMIN/activation	/forceset/TMIN/fiber_length	/forceset/TMAJ/activation	/forceset/TMAJ/fiber_length	/forceset/PECM1/activation	/forceset/PECM2/activation	/forceset/PECM2/fiber_length	/forceset/PECM3/activation	/forceset/PECM3/fiber_length	/forceset/LAT1/activation	/forceset/LAT1/fiber_length	/forceset/LAT2/activation	/forceset/LAT2/fiber_length	/forceset/LAT3/activation	/forceset/LAT3/fiber_length	/forceset/CORB/activation	/forceset/CORB/fiber_length	/forceset/TRIlong/activation	/forceset/TRIlong/fiber_length	/forceset/TRIlat/activation	/forceset/TRIlat/fiber_length	/forceset/TRImed/activation	/forceset/TRImed/fiber_length	/forceset/ANC/activation	/forceset/ANC/fiber_length	/forceset/SUP/activation	/forceset/SUP/fiber_length	/forceset/BIClong/activation	/forceset/BIClong/fiber_length	/forceset/BICshort/activation	/forceset/BICshort/fiber_length	/forceset/BRA/activation	/forceset/BRA/fiber_length	/forceset/BRD/activation	/forceset/BRD/fiber_length	/forceset/ECRL/activation	/forceset/ECRL/fiber_length	/forceset/ECRB/activation	/forceset/ECRB/fiber_length	/forceset/ECU/activation	/forceset/ECU/fiber_length	/forceset/FCR/activation	/forceset/FCR/fiber_length	/forceset/FCU/activation	/forceset/FCU/fiber_length	/forceset/PL/activation	/forceset/PL/fiber_length	/forceset/PT/activation	/forceset/PT/fiber_length	/forceset/PQ/activation	/forceset/PQ/fiber_length	/forceset/FDSL/activation	/forceset/FDSL/fiber_length	/forceset/FDSR/activation	/forceset/FDSR/fiber_length	/forceset/FDSM/activation	/forceset/FDSM/fiber_length	/forceset/FDSI/activation	/forceset/FDSI/fiber_length	/forceset/FDPL/activation	/forceset/FDPL/fiber_length	/forceset/FDPR/activation	/forceset/FDPR/fiber_length	/forceset/FDPM/activation	/forceset/FDPM/fiber_length	/forceset/FDPI/activation	/forceset/FDPI/fiber_length	/forceset/EDCL/activation	/forceset/EDCL/fiber_length	/forceset/EDCR/activation	/forceset/EDCR/fiber_length	/forceset/EDCM/activation	/forceset/EDCM/fiber_length	/forceset/EDCI/activation	/forceset/EDCI/fiber_length	/forceset/EDM/activation	/forceset/EDM/fiber_length	/forceset/EIP/activation	/forceset/EIP/fiber_length	/forceset/EPL/activation	/forceset/EPL/fiber_length	/forceset/EPB/activation	/forceset/EPB/fiber_length	/forceset/FPL/activation	/forceset/FPL/fiber_length	/forceset/APL/activation	/forceset/APL/fiber_length
      0.00000000	     -7.57776301	      0.00000000	      3.20958276	      0.00000000	     -3.20958276	      0.00000000	      7.57776301	      0.00000000	     -1.53434287	      0.00000000	     12.40001933	      0.00000000	      5.57372335	      0.00000000	     -5.57372335	      0.00000000	    -12.40001933	      0.00000000	      1.53434287	      0.00000000	    -38.26200000	      0.00000000	     31.31300010	      0.00000000	     38.26200000	      0.00000000	     -8.06799999	      0.00000000	     97.67699996	      0.00000000	      0.00000000	      0.00000000	      0.00000000	      0.00000000	      0.00000000	      0.00000000	      0.00000021	      0.00000000	      0.00000000	      0.00000000	      0.02000000	      0.13763191	      0.24902081	      0.08782011	      0.21004919	      0.09714537	      0.02870740	      0.06568422	      0.04743676	      0.07808955	      0.02000000	      0.07749941	      0.03485273	      0.06245935	      0.06467825	      0.11586726	      0.02000000	      0.02000000	      0.12133564	      0.02000000	      0.09684273	      0.06219816	      0.16377641	      0.04023822	      0.12748584	      0.02000000	      0.19563204	      0.02000000	      0.08561105	      0.28756157	      0.16305036	      0.02000000	      0.10708314	      0.02000000	      0.10200656	      0.02000000	      0.02282682	      0.05094226	      0.03402250	      0.03457167	      0.11420160	      0.02000000	      0.12935152	      0.13606741	      0.06529936	      0.07873564	      0.11757143	      0.06922212	      0.05964087	      0.07252362	      0.05993487	      0.07266520	      0.06966476	      0.02000000	      0.04863161	      0.02000000	      0.03260425	      0.02000000	      0.04783303	      0.02000000	      0.04149840	      0.02000000	      0.02661456	      0.02000000	      0.03354981	      0.02000000	      0.05710453	      0.02000000	      0.07315294	      0.02000000	      0.08544812	      0.02000000	      0.07461822	      0.02000000	      0.07852439	      0.02000000	      0.07488733	      0.02000000	      0.07451861	      0.02000000	      0.07955178	      0.05337750	      0.06762316	      0.03810542	      0.07973446	      0.02000000	      0.07308427	      0.02455549	      0.07919460	      0.02000000	      0.06579047	      0.02000000	      0.06208253	      0.02000000	      0.06764505	      0.02000000	      0.05968006	      0.02000000	      0.07039143
      0.00073913	     -7.57776878	     -0.01567586	      3.20958521	      0.00663956	     -3.20958521	     -0.00663956	      7.57776878	      0.01567586	     -1.53434403	     -0.00317404	     12.40002877	      0.02565150	      5.57372759	      0.01153017	     -5.57372759	     -0.01153017	    -12.40002877	     -0.02565150	      1.53434403	      0.00317404	    -38.26199799	      0.00539213	     31.31302396	      0.06477615	     38.26199799	     -0.00539213	     -8.06842124	     -1.13280918	     97.67776406	      2.05087488	      0.00067258	      1.73390289	      0.00003103	      0.08172873	      0.00001218	      0.03286048	      0.00241291	      6.35485989	      0.00034891	      0.94138329	      0.02000000	      0.13763193	      0.24902081	      0.08782011	      0.21004919	      0.09714535	      0.02870740	      0.06568420	      0.04743676	      0.07808952	      0.02000000	      0.07749945	      0.03485273	      0.06245933	      0.06467825	      0.11586730	      0.02000000	      0.02000000	      0.12133566	      0.02000000	      0.09684275	      0.06219816	      0.16377643	      0.04023822	      0.12748585	      0.02000000	      0.19563205	      0.02000000	      0.08561105	      0.28756157	      0.16305038	      0.02000000	      0.10708318	      0.02000000	      0.10200660	      0.02000000	      0.02282685	      0.05094226	      0.03402251	      0.03457167	      0.11420158	      0.02000000	      0.12935149	      0.13606741	      0.06529932	      0.07873564	      0.11757131	      0.06922212	      0.05964088	      0.07252362	      0.05993489	      0.07266520	      0.06966474	      0.02000000	      0.04863160	      0.02000000	      0.03260421	      0.02000000	      0.04783302	      0.02000000	      0.04149837	      0.02000000	      0.02661451	      0.02000000	      0.03354980	      0.02000000	      0.05710451	      0.02000000	      0.07315294	      0.02000000	      0.08544812	      0.02000000	      0.07461821	      0.02000000	      0.07852438	      0.02000000	      0.07488732	      0.02000000	      0.07451861	      0.02000000	      0.07955177	      0.05337750	      0.06762316	      0.03810542	      0.07973446	      0.02000000	      0.07308428	      0.02455549	      0.07919459	      0.02000000	      0.06579048	      0.02000000	      0.06208254	      0.02000000	      0.06764509	      0.02000000	      0.05968006	      0.02000000	      0.07039147
      0.00147826	     -7.57778627	     -0.03171860	      3.20959261	      0.01343450	     -3.20959261	     -0.01343450	      7.57778627	      0.03171860	     -1.53434758	     -0.00642237	     12.40005739	      0.05190335	      5.57374046	      0.02333020	     -5.57374046	     -0.02333020	    -12.40005739	     -0.05190335	      1.53434758	      0.00642237	    -38.26199210	      0.01052146	     31.31309623	      0.13106830	     38.26199210	     -0.01052146	     -8.06966258	     -2.21717340	     97.68000407	      3.99029782	      0.00243652	      2.95446619	      0.00011718	      0.14877883	      0.00004826	      0.06444978	      0.00911134	     11.56717318	      0.00138256	      1.84635029	      0.02000000	      0.13763199	      0.24902081	      0.08782009	      0.21004919	      0.09714523	      0.02870740	      0.06568406	      0.04743676	      0.07808933	      0.02000000	      0.07749963	      0.03485273	      0.06245926	      0.06467825	      0.11586745	      0.02000000	      0.02000000	      0.12133577	      0.02000000	      0.09684282	      0.06219816	      0.16377652	      0.04023822	      0.12748593	      0.02000000	      0.19563215	      0.02000000	      0.08561108	      0.28756157	      0.16305049	      0.02000000	      0.10708341	      0.02000000	      0.10200684	      0.02000000	      0.02282700	      0.05094226	      0.03402257	      0.03457167	      0.11420144	      0.02000000	      0.12935126	      0.13606741	      0.06529909	      0.07873564	      0.11757056	      0.06922212	      0.05964094	      0.07252362	      0.05993499	      0.07266520	      0.06966462	      0.02000000	      0.04863157	      0.02000000	      0.03260400	      0.02000000	      0.04783293	      0.02000000	      0.04149824	      0.02000000	      0.02661435	      0.02000000	      0.03354970	      0.02000000	      0.05710440	      0.02000000	      0.07315289	      0.02000000	      0.08544808	      0.02000000	      0.07461813	      0.02000000	      0.07852431	      0.02000000	      0.07488727	      0.02000000	      0.07451859	      0.02000000	      0.07955173	      0.05337750	      0.06762315	      0.03810542	      0.07973449	      0.02000000	      0.07308434	      0.02455549	      0.07919454	      0.02000000	      0.06579056	      0.02000000	      0.06208264	      0.02000000	      0.06764540	      0.02000000	      0.05968006	      0.02000000	      0.07039171
      0.00292115	     -7.57785531	     -0.06425113	      3.20962186	      0.02721375	     -3.20962186	     -0.02721375	      7.57785531	      0.06425113	     -1.53436156	     -0.01300955	     12.40017037	      0.10513858	      5.57379124	      0.04725907	     -5.57379124	     -0.04725907	    -12.40017037	     -0.10513858	      1.53436156	      0.01300955	    -38.26197003	      0.01995447	     31.31338152	      0.26549995	     38.26197003	     -0.01995447	     -8.07429743	     -4.17021233	     97.68829074	      7.41603725	      0.00766409	      4.03696822	      0.00040014	      0.23320721	      0.00018153	      0.11813026	      0.03110709	     18.12507248	      0.00520045	      3.38418256	      0.02000000	      0.13763230	      0.24902081	      0.08781999	      0.21004919	      0.09714460	      0.02870740	      0.06568329	      0.04743676	      0.07808832	      0.02000000	      0.07750056	      0.03485273	      0.06245882	      0.06467825	      0.11586814	      0.02000000	      0.02000000	      0.12133636	      0.02000000	      0.09684327	      0.06219816	      0.16377698	      0.04023822	      0.12748638	      0.02000000	      0.19563265	      0.02000000	      0.08561125	      0.28756157	      0.16305118	      0.02000000	      0.10708477	      0.02000000	      0.10200828	      0.02000000	      0.02282789	      0.05094226	      0.03402288	      0.03457167	      0.11420037	      0.02000000	      0.12934967	      0.13606741	      0.06529764	      0.07873564	      0.11756581	      0.06922212	      0.05964133	      0.07252362	      0.05993567	      0.07266520	      0.06966385	      0.02000000	      0.04863130	      0.02000000	      0.03260257	      0.02000000	      0.04783225	      0.02000000	      0.04149740	      0.02000000	      0.02661375	      0.02000000	      0.03354903	      0.02000000	      0.05710364	      0.02000000	      0.07315259	      0.02000000	      0.08544783	      0.02000000	      0.07461760	      0.02000000	      0.07852384	      0.02000000	      0.07488691	      0.02000000	      0.07451846	      0.02000000	      0.07955146	      0.05337750	      0.06762315	      0.03810542	      0.07973472	      0.02000000	      0.07308476	      0.02455549	      0.07919423	      0.02000000	      0.06579112	      0.02000000	      0.06208327	      0.02000000	      0.06764724	      0.02000000	      0.05968001	      0.02000000	      0.07039317
      0.00436404	     -7.57797245	     -0.09836560	      3.20967147	      0.04166302	     -3.20967147	     -0.04166302	      7.57797245	      0.09836560	     -1.53438527	     -0.01991703	     12.40036205	      0.16096245	      5.57387740	      0.07235151	     -5.57387740	     -0.07235151	    -12.40036205	     -0.16096245	      1.53438527	      0.01991703	    -38.26193473	      0.02894178	     31.31386557	      0.40646849	     38.26193473	     -0.02894178	     -8.08159166	     -5.90540268	     97.70118505	     10.38706037	      0.01350985	      3.91673666	      0.00076226	      0.26002236	      0.00038171	      0.15644095	      0.05924507	     20.20033733	      0.01093505	      4.48170323	      0.02000000	      0.13763282	      0.24902081	      0.08781975	      0.21004919	      0.09714339	      0.02870740	      0.06568174	      0.04743676	      0.07808638	      0.02000000	      0.07750221	      0.03485273	      0.06245790	      0.06467825	      0.11586929	      0.02000000	      0.02000000	      0.12133751	      0.02000000	      0.09684416	      0.06219816	      0.16377782	      0.04023822	      0.12748720	      0.02000000	      0.19563356	      0.02000000	      0.08561161	      0.28756157	      0.16305274	      0.02000000	      0.10708758	      0.02000000	      0.10201118	      0.02000000	      0.02282965	      0.05094226	      0.03402342	      0.03457167	      0.11419772	      0.02000000	      0.12934594	      0.13606741	      0.06529458	      0.07873564	      0.11755565	      0.06922212	      0.05964209	      0.07252362	      0.05993722	      0.07266520	      0.06966220	      0.02000000	      0.04863059	      0.02000000	      0.03259935	      0.02000000	      0.04783062	      0.02000000	      0.04149558	      0.02000000	      0.02661302	      0.02000000	      0.03354745	      0.02000000	      0.05710185	      0.02000000	      0.07315187	      0.02000000	      0.08544723	      0.02000000	      0.07461640	      0.02000000	      0.07852278	      0.02000000	      0.07488609	      0.02000000	      0.07451812	      0.02000000	      0.07955094	      0.05337750	      0.06762317	      0.03810542	      0.07973527	      0.02000000	      0.07308573	      0.02455549	      0.07919362	      0.02000000	      0.06579239	      0.02000000	      0.06208465	      0.02000000	      0.06765091	      0.02000000	      0.05967983	      0.02000000	      0.07039603
